<svg id="Layer_1" data-name="Layer 1" xmlns="http://www.w3.org/2000/svg" width="728.55" height="727.44" viewBox="0 0 728.55 727.44"><defs><style>.cls-1{fill:#315da8;}.cls-2{fill:#416bb3;}.cls-3{fill:#6389c6;}.cls-4{fill:#a0b9e1;}.cls-5{fill:#afc4e7;}.cls-6{fill:#7296ce;}.cls-7{fill:#8ba9d9;}</style></defs><title>azure_pipelines_logo_freelogovectors.net</title><path class="cls-1" d="M262,639.25,360.66,738h160.2a35.23,35.23,0,0,0,35.21-35.22v-370L262,627A8.47,8.47,0,0,0,262,639.25Z" transform="translate(-10.73 -11.28)"/><path class="cls-2" d="M10.73,227.89v160.2l98.71,98.71a8.49,8.49,0,0,0,12.22,0L416,192.49h-370A35.39,35.39,0,0,0,10.73,227.89Z" transform="translate(-10.73 -11.28)"/><path class="cls-3" d="M381.11,48.5,143.55,412a31.17,31.17,0,0,0,4,39L299.73,603.17a31.21,31.21,0,0,0,39,4L702.23,369.45a82,82,0,0,0,37-68.61V47.41a36.21,36.21,0,0,0-36.12-36.13H449.9A82.51,82.51,0,0,0,381.11,48.5Z" transform="translate(-10.73 -11.28)"/><path class="cls-4" d="M64.19,688V559.55H10.73V738.72H192.64V688Z" transform="translate(-10.73 -11.28)"/><path class="cls-5" d="M557,280.54a90.5,90.5,0,1,0-90.5-90.5A90.49,90.49,0,0,0,557,280.54Z" transform="translate(-10.73 -11.28)"/><path class="cls-6" d="M395,311.32,201.44,504.84l44.64,44.64L439.6,356Z" transform="translate(-10.73 -11.28)"/><path class="cls-7" d="M207.54,588,246,549.57l-44.64-44.64L162.9,543.37Z" transform="translate(-10.73 -11.28)"/></svg>